<svg width="400" height="400" viewBox="0 0 400 400" fill="none" xmlns="http://www.w3.org/2000/svg">
<path d="M75 64C75 52.9543 83.9543 44 95 44H303.8C314.846 44 323.8 52.9543 323.8 64V284.516C323.8 289.82 321.693 294.907 317.942 298.658L267.458 349.142C263.707 352.893 258.62 355 253.316 355H95C83.9543 355 75 346.046 75 335V64Z" fill="#004D85"/>
<path d="M196.603 252.992L145.53 206.964L75.2271 266.676V64C75.2271 52.9543 84.1814 44 95.2271 44H304.027C315.073 44 324.027 52.9543 324.027 64V164.046L196.603 252.992Z" fill="#007AD8"/>
<path d="M239.208 130.458C244.36 130.458 248.538 134.635 248.538 139.788C248.538 144.941 244.36 149.118 239.208 149.118H110.454C105.301 149.118 101.124 144.941 101.124 139.788C101.124 134.635 105.301 130.458 110.454 130.458H239.208ZM274.662 80.698C279.814 80.698 283.992 84.8752 283.992 90.028C283.992 95.1808 279.814 99.358 274.662 99.358H110.454C105.301 99.358 101.124 95.1808 101.124 90.028C101.124 84.8752 105.301 80.698 110.454 80.698H274.662Z" fill="#004D85"/>
<path d="M270.93 197.634C272.058 197.634 273.126 198.145 273.834 199.023C274.543 199.9 274.816 201.052 274.578 202.154L269.602 225.168C269.166 227.183 267.18 228.464 265.165 228.028C263.151 227.593 261.87 225.606 262.305 223.592L265.273 209.86L196.629 257.74L145.215 211.901L100.418 249.627C98.8412 250.955 96.4863 250.753 95.1587 249.176C93.831 247.6 94.0328 245.245 95.6094 243.917L145.355 202.027L197.193 248.244L259.056 205.098H246.05C243.988 205.098 242.318 203.427 242.318 201.366C242.318 199.305 243.988 197.634 246.05 197.634H270.93Z" fill="#D4E3F9"/>
</svg>
